<svg xmlns="http://www.w3.org/2000/svg" viewBox="0 0 150 36"><path fill="#0052a0" d="M55.9 23.4s1.8 1.8 4.9 1.8c1.4 0 3-.6 3-2 0-2.3-7.7-2.3-7.7-7.7 0-3.6 3.6-5.8 7.3-5.8 4.2 0 6.4 2.1 6.4 2.1L67.7 15s-1.4-1.4-4.3-1.4c-1.3 0-3 .6-3 2 0 2.2 7.8 2.2 7.8 7.7 0 3.4-3.1 5.8-7.3 5.8-4.6 0-7.3-2.7-7.3-2.7l2.3-3zM80.7 9.7c5.3 0 9.1 3.3 9.1 8.1 0 6.5-5.7 11.2-11.4 11.2-5.3 0-9-3.2-9-8.2 0-6.3 5.6-11.1 11.3-11.1zm-2.2 15.4c3.3 0 6.7-2.9 6.7-7 0-2.7-1.8-4.5-4.4-4.5-3.3 0-6.7 3-6.7 7-.1 2.8 1.8 4.5 4.4 4.5zm12.3-2.5L94.6 3h4.6l-3.6 18.9c-.1.5-.2 1.2-.2 1.5 0 1.2.8 1.4 1.6 1.4h.6l-.8 4s-.6.1-1.3.1c-2.5 0-4.8-.9-4.8-4.4-.1-.6-.1-1.2.1-1.9zm11.1-12.4h4.4l-.3 1.7c-.2.9-.5 1.8-.5 1.8h.1c1-1.7 3.8-3.9 7-3.9s5.6 1.5 5.6 5c0 .7-.2 1.6-.3 2.4l-2.2 11.4h-4.6l2.1-10.7c.1-.6.2-1.2.2-1.7 0-1.6-.9-2.2-2.3-2.2-3.2 0-5.9 3-6.6 6.4l-1.6 8.3h-4.6l3.6-18.5zm27.9-.5c4.9 0 7.4 2.9 7.4 7 0 1.6-.6 3.5-.6 3.5h-12.7v.7c0 2.3 1.6 4.2 4.5 4.2 3 0 5.7-2 5.7-2l1.2 3.5s-3.1 2.4-7.2 2.4c-5.7 0-9-3.5-9-7.9 0-6.2 4.5-11.4 10.7-11.4zm2.7 7.4s.1-.4.1-.8c0-1.9-1.2-3-2.9-3-2.3 0-4.3 1.6-5.2 3.8h8zm6.6 4.3l1.4-7.4h-2.3l.7-3.6h2.5l1-5.3h4.4l-1 5.3h4.2l-.7 3.6h-4.2l-1.3 6.7c-.1.6-.1 1.2-.1 1.5 0 2.1 1.5 2.5 2.9 2.5.6 0 1-.1 1-.1l-.8 4s-.7.1-1.3.1c-3.3 0-6.5-1.3-6.5-5.6-.1-.4 0-1.1.1-1.7zM33.3 26.8c-1.5.5-3 .7-4.5.7-2 0-3.9-.4-5.2-1-3.5-1.6-6-5-6.1-8.3-.1-2.2.7-5.3 4.8-8.2-2.3-.4-5.2-.2-7.6 1-2.4 1.1-3.9 3-4.5 5.5-.9 3.5.1 7.2 2.7 10.4 2.7 3.4 6.9 5.9 11.6 7.1 1.5.3 3.1.5 4.7.5 3.7 0 7.2-.9 10.2-2.4 0-.1-6.1-5.3-6.1-5.3zM29.2 1.6c-.6 0-1.2 0-1.7.1 3.8 1.4 7.2 3.7 9.5 6.7 2.9 3.6 3.9 7.7 2.9 11.6-.7 2.9-2.5 5.1-5.2 6.4l5.9 5.1c4.9-3 8.2-7.8 8.2-13.3 0-9.3-8.8-16.6-19.6-16.6zm9.5 18c.9-3.5-.1-7.2-2.7-10.4-2.8-3.5-7-6-11.7-7.1-1.5-.3-3.1-.5-4.7-.5-3.9 0-7.5 1-10.6 2.6l6.1 5.2c3.6-1.4 7.9-1 10.3.1 3.5 1.6 6 5 6.1 8.3.1 2.2-.7 5.3-4.8 8.2 2.3.4 5.2.2 7.6-1 2.2-1.1 3.8-2.9 4.4-5.4zm-26.8 8.1C9.1 24.1 8 20 9 16.1c.7-2.7 2.3-4.8 4.8-6.1l-6-5.1C3.1 7.9 0 12.6 0 18c0 9.1 8.8 16.4 19.6 16.4.6 0 1.2 0 1.8-.1-3.8-1.4-7.1-3.7-9.5-6.6z"/></svg>